<svg xmlns="http://www.w3.org/2000/svg" width="128" height="128" viewBox="0 0 128 128"><circle cx="64" cy="64" r="57" fill="#07111b" fill-opacity=".94" stroke="#7a6033" stroke-width="8"/><circle cx="64" cy="64" r="55" fill="none" stroke="#e0b75f" stroke-width="3"/><circle cx="64" cy="64" r="47" fill="none" stroke="#4e3f27" stroke-width="2"/><path d="M64 2l7 7-7 7-7-7zM126 64l-7 7-7-7 7-7zM64 126l-7-7 7-7 7 7zM2 64l7-7 7 7-7 7z" fill="#f1c76b" stroke="#6f542b" stroke-width="2"/><path d="M45 75V50l8-8 7 10 5-14 8 8 4-10 8 12-5 18 8 8-9 16-20 4-14-19z" fill="#f0c76f" stroke="#fff0bd" stroke-width="2"/><path d="M53 52l7 18m6-24 5 21m8-18-3 18" stroke="#8d6128" stroke-width="3"/></svg>